# xmcd
#
# Track frame offsets:
#	150
#	18042
#	36586
#	59024
#	78860
#	89931
#	106135
#	126488
#	144366
#
# Disc length: 2267 seconds
#
# Revision: 5
# Processed by: cddbd v1.5.2PL0 Copyright (c) Steve Scherf et al.
# Submitted via: Jack! The Knife
#
DISCID=7b08d909
DTITLE=Testament - The Legacy
DYEAR=1986
DGENRE=Heavy Metal
TTITLE0=Over The Wall
TTITLE1=The Haunting
TTITLE2=Burnt Offerings
TTITLE3=Raging Waters
TTITLE4=C.O.T.L.O.D.
TTITLE5=First Strike Is Deadly
TTITLE6=Do Or Die
TTITLE7=Alone In The Dark
TTITLE8=Apocalyptic City
EXTD=Heavy Metal
EXTT0=Peterson - Skolnick - Chirstian - Sousa
EXTT1=Peterson - Skolnick - Sousa
EXTT2=Peterson - Skolnick - Sousa
EXTT3=Peterson - Sousa
EXTT4=Ramirez - Peterson
EXTT5=Peterson - Skolnick - Sousa - Christian
EXTT6=Peterson - Skolnick - Clemente - Billy
EXTT7=Peterson - Skolnick - Sousa
EXTT8=Peterson - Skolnick
PLAYORDER=
